<?xml version="1.0" encoding="UTF-8" standalone="no"?>
<svg
   xmlns="http://www.w3.org/2000/svg"
   class="icon"
   viewBox="0 0 3072 3072"
   version="1.1"
   width="144"
   height="144"
   id="svg30">

  <defs
     id="defs4">
    <style
       type="text/css"
       id="style2" />
  </defs>
  <path
     d="m 1536.216,1301.7738 a 27.687664,27.68784 0 0 1 -29.3178,-29.318 v -175.8711 a 29.317792,29.317979 0 1 1 58.6233,0 v 175.8711 a 27.687664,27.68784 0 0 1 -29.3055,29.318 z"
     fill="#999999"
     id="path6"
     style="stroke-width:0.95755" />
  <path
     d="m 1653.4871,1334.0334 a 32.479995,32.480202 0 0 1 -11.7295,-41.0354 l 87.9778,-152.424 a 32.479995,32.480202 0 0 1 41.0351,-11.7297 32.492252,32.492459 0 0 1 11.7296,41.0354 l -87.9411,152.4118 a 32.479995,32.480202 0 0 1 -41.0719,11.7419 z"
     fill="#cccccc"
     id="path8"
     style="stroke-width:0.95755" />
  <path
     d="m 1738.4989,1419.0212 a 29.660977,29.661166 0 0 1 11.7296,-41.0353 l 152.4231,-87.8927 a 32.479995,32.480202 0 0 1 41.0351,11.7296 29.660977,29.661166 0 0 1 -11.7296,41.0354 l -152.4231,87.8927 a 32.492252,32.492459 0 0 1 -41.0351,-11.7297 z"
     fill="#cccccc"
     id="path10"
     style="stroke-width:0.95755" />
  <path
     d="m 2005.2761,1536.2196 a 27.687664,27.68784 0 0 1 -29.3178,29.416 h -175.87 a 29.317792,29.317979 0 1 1 0,-58.6237 h 175.87 a 27.687664,27.68784 0 0 1 29.3178,29.2077 z"
     fill="#cccccc"
     id="path12"
     style="stroke-width:0.95755" />
  <path
     d="m 1943.7357,1770.7757 a 32.479995,32.480202 0 0 1 -41.0351,11.7296 l -152.4231,-87.9417 a 30.175754,30.175946 0 0 1 29.3178,-52.7037 l 152.3986,87.8804 a 32.529021,32.529229 0 0 1 11.7418,41.0354 z"
     fill="#cccccc"
     id="path14"
     style="stroke-width:0.95755" />
  <path
     d="m 1776.6292,1937.8342 a 31.573006,31.573208 0 0 1 -41.0351,-8.7758 l -90.8827,-149.5069 a 29.675652,29.675841 0 0 1 49.8108,-32.2719 l 90.895,149.5315 a 26.805188,26.805359 0 0 1 -8.788,41.0231 z"
     fill="#cccccc"
     id="path16"
     style="stroke-width:0.95755" />
  <path
     d="m 1536.216,2005.2827 a 27.687664,27.68784 0 0 1 -29.3178,-29.3179 v -175.8711 a 29.317792,29.317979 0 1 1 58.6233,0 v 175.8711 a 27.687664,27.68784 0 0 1 -29.3055,29.3179 z"
     fill="#cccccc"
     id="path18"
     style="stroke-width:0.95755" />
  <path
     d="m 1301.7717,1943.7419 a 32.479995,32.480202 0 0 1 -11.6806,-41.0353 l 87.9412,-152.4241 a 32.479995,32.480202 0 0 1 41.0351,-11.7296 32.479995,32.480202 0 0 1 11.7295,41.0353 L 1342.7945,1932 a 32.541278,32.541485 0 0 1 -41.0228,11.7419 z"
     fill="#cccccc"
     id="path20"
     style="stroke-width:0.95755" />
  <path
     d="m 1128.8065,1770.7757 a 29.697746,29.697936 0 0 1 11.7296,-41.0354 l 152.4231,-87.9417 a 30.175754,30.175946 0 0 1 29.3178,52.7038 l -152.4354,88.0029 a 32.492252,32.492459 0 0 1 -41.0351,-11.7296 z"
     fill="#cccccc"
     id="path22"
     style="stroke-width:0.95755" />
  <path
     d="m 1301.7717,1536.2196 a 27.687664,27.68784 0 0 1 -29.3178,29.416 h -175.87 a 29.317792,29.317979 0 1 1 0,-58.6237 h 175.87 a 27.687664,27.68784 0 0 1 29.3178,29.2077 z"
     fill="#cccccc"
     id="path24"
     style="stroke-width:0.95755" />
  <path
     d="m 1334.0311,1419.0212 a 32.479995,32.480202 0 0 1 -41.0352,11.7297 l -152.423,-87.954 a 32.479995,32.480202 0 0 1 -11.7296,-41.0353 32.492252,32.492459 0 0 1 41.0473,-11.6684 l 152.3986,87.8927 a 32.467738,32.467945 0 0 1 11.7419,41.0353 z"
     fill="#cccccc"
     id="path26"
     style="stroke-width:0.95755" />
  <path
     d="m 1416.1135,1333.9966 a 31.536237,31.536438 0 0 1 -41.0351,-8.8125 l -90.8949,-149.5315 a 29.660977,29.661166 0 0 1 11.6927,-40.9864 27.994079,27.994257 0 0 1 38.1303,8.7758 l 90.895,149.5315 c 8.8002,14.659 5.7974,35.1522 -8.788,41.0231 z"
     fill="#cccccc"
     id="path28"
     style="stroke-width:0.95755" />
</svg>
