<?xml version="1.0" encoding="UTF-8" standalone="no"?>
<svg xmlns="http://www.w3.org/2000/svg" class="icon" viewBox="0 0 1576 1024" version="1.1"
    width="72" height="48" id="svg10">
    <path id="path"
        d="m 482.76,327.33 h 230.993 c 5.54,0 10.31,-4.772 10.31,-10.312 0,-5.54 -4.77,-10.31 -10.31,-10.31 H 482.76 c -5.54,0 -10.31,4.77 -10.31,10.31 0,2.309 0.77,5.54 3.078,7.08 1.692,2.462 4.77,3.231 7.232,3.231 z m 336.563,85.102 H 482.76 c -5.54,0 -10.31,4.77 -10.31,10.31 0,3.078 0.77,5.54 3.078,7.08 1.538,1.538 4.77,3.077 7.079,3.077 h 336.562 c 5.54,0 10.311,-4.77 10.311,-10.31 0,-5.387 -4.77,-10.157 -10.157,-10.157 z M 630.035,518.002 H 482.607 c -5.54,0 -10.311,4.77 -10.311,10.31 0,3.078 0.77,5.54 3.078,7.08 1.539,1.539 4.77,3.077 7.079,3.077 h 147.429 c 5.54,0 10.31,-4.77 10.31,-10.31 0,-5.54 -4.616,-10.157 -10.157,-10.157 z M 157.278,707.905 h 21.237 c 5.54,0 10.311,4.77 10.311,10.31 0,5.54 -4.77,10.312 -10.31,10.312 h -21.238 v 21.237 c 0,5.54 -4.77,10.31 -10.31,10.31 -3.079,0 -5.54,-0.769 -7.08,-3.077 -2.308,-1.54 -3.078,-4.771 -3.078,-7.08 V 728.68 h -21.39 c -5.54,0 -10.311,-4.77 -10.311,-10.31 0,-5.54 4.77,-10.311 10.31,-10.311 h 21.237 v -21.237 c 0,-5.54 4.771,-10.311 10.311,-10.311 5.54,0 10.311,4.77 10.311,10.31 z M 1544.31,622.803 v -21.238 c 0,-3.231 -0.77,-5.54 -3.078,-7.079 -2.308,-1.539 -4.77,-3.078 -7.079,-3.078 -5.54,0 -10.31,4.771 -10.31,10.311 v 21.237 h -21.238 c -3.077,0 -5.54,0.77 -7.079,3.232 -1.539,2.309 -3.231,4.77 -3.231,7.08 0,5.54 4.77,10.31 10.31,10.31 h 21.238 v 21.237 c 0,5.54 4.77,10.31 10.31,10.31 5.54,0 10.311,-4.77 10.311,-10.31 V 643.27 h 21.237 c 5.54,0 10.311,-4.77 10.311,-10.31 0,-5.54 -4.77,-10.311 -10.31,-10.311 H 1544.31 Z M 267.62,47.553 h 31.548 c 8.618,0 15.697,7.079 15.697,15.697 0,8.618 -7.08,15.697 -15.697,15.697 H 267.62 v 31.548 c 0,8.618 -7.08,15.697 -15.697,15.697 -4.001,0 -7.849,-1.54 -11.08,-4.77 -3.078,-2.31 -4.771,-6.31 -4.771,-11.081 V 79.1 h -31.548 c -4.001,0 -7.849,-1.54 -11.08,-4.771 -3.078,-2.308 -4.77,-6.31 -4.77,-11.08 0,-8.618 7.078,-15.697 15.696,-15.697 h 31.548 V 16.005 c 0,-8.618 7.08,-15.697 15.697,-15.697 8.617,0 15.697,7.079 15.697,15.697 V 47.553 Z M 62.634,274.544 c -22.93,0 -43.397,11.85 -54.324,31.548 -11.08,19.698 -11.08,44.167 0,63.096 11.08,19.698 32.318,31.548 54.324,31.548 34.626,0 63.096,-28.316 63.096,-63.096 0,-34.78 -28.47,-63.096 -63.096,-63.096 z m 27.547,79.562 c -5.54,9.388 -15.697,15.697 -27.547,15.697 -17.39,0 -31.548,-14.158 -31.548,-31.548 0,-17.39 14.158,-31.547 31.548,-31.547 11.08,0 21.237,6.31 27.547,15.697 5.54,9.695 5.54,21.39 0,31.701 z M 1365.487,148.352 c -22.93,0 -43.397,11.85 -54.324,31.548 -11.08,19.698 -11.08,44.167 0,63.096 11.08,19.698 32.318,31.548 54.324,31.548 34.626,0 63.096,-28.316 63.096,-63.096 -0.154,-34.626 -27.7,-63.096 -63.096,-63.096 z m 27.547,78.793 c -5.54,9.388 -15.697,15.697 -27.547,15.697 -17.39,0 -31.548,-14.158 -31.548,-31.548 0,-17.39 14.158,-31.548 31.548,-31.548 11.08,0 22.007,6.31 27.547,15.697 5.54,9.696 5.54,22.315 0,31.702 z m 0,0 m -132.501,607.721 h -134.81 l 9.387,-15.697 c 6.31,-11.08 9.388,-23.7 9.388,-37.088 V 168.82 c 0,-19.698 -7.849,-37.858 -21.237,-52.016 -13.389,-13.388 -32.318,-21.237 -52.016,-21.237 H 567.093 c -19.698,0 -37.857,7.849 -52.015,21.237 -14.158,14.158 -21.237,32.318 -21.237,52.016 v 32.317 h -73.253 c -19.698,0 -37.858,7.849 -52.016,21.238 -14.158,14.158 -22.006,32.317 -22.006,52.015 v 612.338 c 0,12.62 3.078,25.238 9.387,37.088 l 9.388,15.697 H 251.92 c -5.54,0 -10.31,4.77 -10.31,10.31 0,2.31 0.77,5.541 3.232,7.08 1.539,1.539 4.77,3.078 7.079,3.078 h 533.545 l 54.324,54.324 c 5.54,5.54 14.158,9.387 22.006,9.387 7.849,0 16.62,-3.078 22.007,-9.387 10.31,-10.311 11.85,-26.008 4.77,-38.627 l -9.387,-16.62 h 129.27 c 5.54,0 10.31,-4.771 10.31,-10.311 0,-5.54 -4.77,-10.311 -10.31,-10.311 h -30.01 l 9.388,-15.697 c 6.31,-11.08 9.388,-23.7 9.388,-37.088 v -32.318 h 263.156 c 5.54,0 10.31,-4.77 10.31,-10.31 0.154,-4.156 -4.616,-8.157 -10.156,-8.157 z m -283.624,52.016 c 0,29.086 -23.7,52.785 -52.785,52.785 h -70.945 l -73.252,-74.022 c -7.849,-7.849 -19.699,-11.08 -30.01,-7.849 l -6.309,1.54 -30.778,-30.78 5.54,-7.078 c 42.628,-57.556 33.856,-138.657 -19.699,-186.056 -53.554,-47.245 -135.579,-44.167 -186.055,7.079 -50.477,50.476 -52.786,132.347 -6.31,186.825 46.475,53.555 127.73,63.096 184.363,20.468 l 7.08,-5.54 30.778,30.778 -1.54,6.31 c -3.077,11.08 0,22.93 7.85,30.778 l 29.085,29.086 H 419.665 c -29.086,0 -52.786,-23.7 -52.786,-52.785 V 273.775 c 0,-28.317 22.93,-52.016 51.247,-52.016 h 507.537 c 28.316,0 51.246,23.7 51.246,52.016 z M 690.823,821.478 c -22.93,22.93 -52.016,33.856 -82.025,33.856 -30.009,0 -59.094,-11.08 -82.024,-33.856 -21.853,-21.7 -34.01,-51.247 -33.857,-82.025 0,-30.779 11.85,-60.634 33.857,-82.025 22.006,-22.006 51.246,-33.856 82.024,-33.856 30.778,0 59.864,11.85 82.025,33.856 22.007,22.007 33.856,51.246 33.856,82.025 0,30.779 -11.85,60.018 -33.856,82.025 z m 433.36,-40.166 c 10e-4,29.085 -23.698,52.785 -52.784,52.785 H 997.377 V 274.544 c 0,-19.698 -7.849,-37.857 -21.238,-52.016 -13.388,-13.388 -32.317,-21.237 -52.015,-21.237 H 514.308 v -31.548 c 0,-29.085 23.7,-52.785 52.785,-52.785 h 504.46 c 29.085,0 52.785,23.7 52.785,52.785 V 781.312 Z M 167.436,940.436 H 41.397 c -5.54,0 -10.31,4.771 -10.31,10.311 0,3.078 0.769,5.54 3.077,7.08 1.539,1.538 4.77,3.077 7.08,3.077 H 167.28 c 5.54,0 10.31,-4.77 10.31,-10.31 0,-5.54 -3.846,-10.158 -10.156,-10.158 z m 0,0" />
</svg>
